# xmcd
#
# Track frame offsets: 
#        150
#        25547
#        52107
#        82323
#        106583
#        126371
#        150745
#        171400
#
# Disc length: 2717 seconds
#
# Revision: 1
# Processed by: cddbd v1.5.2PL0 Copyright (c) Steve Scherf et al.
# Submitted via: ExactAudioCopy v1.1
#
DISCID=640a9b08
DTITLE=Hale, Terry Lee - The Long Draw
DYEAR=2014
DGENRE=Singer/Songwriter
TTITLE0=The Long Draw
TTITLE1=What She Wrote
TTITLE2=Black Forrest Phone Call
TTITLE3=The Sad Ballad of Muley Graves
TTITLE4=Three Days
TTITLE5=The Central
TTITLE6=LA 9th and Grand
TTITLE7=Gold Mine
EXTD=
EXTT0=
EXTT1=
EXTT2=
EXTT3=
EXTT4=
EXTT5=
EXTT6=
EXTT7=
PLAYORDER=
